<svg width="1500" height="1500" viewBox="0 0 1500 1500" fill="none" xmlns="http://www.w3.org/2000/svg">
<path d="M248.525 1134.47C248.525 1134.47 284.971 1182.28 312.389 1189.14C312.389 1189.14 339.138 1152.69 367.057 1098.86C388.791 1057.06 411.36 1004.73 422.729 950.568L376.085 931.844C376.085 931.844 331.614 1055.39 264.407 1120.42C259.392 1125.44 254.042 1130.12 248.525 1134.47Z" fill="url(#paint0_linear_200_2)"/>
<path opacity="0.5" d="M248.525 1134.47C248.525 1134.47 284.97 1182.28 312.388 1189.14C312.388 1189.14 339.137 1152.69 367.057 1098.86C367.057 1098.86 320.58 1132.96 264.574 1120.59C259.392 1125.44 254.042 1130.12 248.525 1134.47Z" fill="url(#paint1_linear_200_2)"/>
<path d="M221.275 1166.06C221.275 1166.06 182.321 1187.8 191.182 1257.18C200.043 1326.73 282.129 1224.58 283.466 1223.74C284.637 1223.07 221.275 1166.06 221.275 1166.06Z" fill="url(#paint2_linear_200_2)"/>
<path d="M308.209 1176.6C308.209 1176.6 274.773 1150.02 256.048 1127.11C248.692 1118.08 235.318 1117.41 226.959 1125.61L211.745 1140.49C205.225 1147.01 203.888 1157.04 208.736 1164.89C217.429 1179.1 233.98 1201.34 260.562 1217.39L308.209 1176.6Z" fill="url(#paint3_linear_200_2)"/>
<path d="M260.732 1217.56C234.317 1201.51 217.599 1179.27 208.905 1165.06C204.057 1157.2 205.394 1147.17 211.914 1140.65L215.091 1137.48C224.787 1149.18 252.54 1177.43 299.518 1184.12L260.732 1217.56Z" fill="url(#paint4_linear_200_2)"/>
<path d="M125.98 1194.32L175.633 1361C178.141 1369.19 185.664 1374.71 194.023 1374.71H384.777L260.729 1217.56H223.614C217.596 1203.68 209.738 1193.15 201.045 1185.46C197.2 1181.95 193.02 1179.1 188.841 1176.6C185.497 1174.59 182.153 1173.09 178.81 1171.58C175.132 1170.08 171.454 1168.74 167.943 1167.9C161.924 1166.23 155.906 1165.23 150.389 1164.73C134.005 1163.05 121.299 1178.6 125.98 1194.32Z" fill="url(#paint5_linear_200_2)"/>
<path d="M238.158 1374.71C223.279 1366.01 213.081 1359.83 213.081 1359.83C276.61 1356.99 310.381 1327.06 327.6 1302.32L384.609 1374.71H238.158Z" fill="url(#paint6_linear_200_2)"/>
<path d="M396.819 946.22C396.819 946.22 357.866 1120.93 270.931 1197.33C270.931 1197.33 409.859 1396.11 633.381 1302.32L596.768 986.845L396.819 946.22Z" fill="url(#paint7_linear_200_2)"/>
<path d="M472.883 1153.02L495.954 1111.23C502.475 1099.36 497.459 1084.31 484.921 1078.8C472.382 1073.28 458.004 1079.63 453.49 1092.51L441.955 1126.61L438.11 1153.02H472.883Z" fill="url(#paint8_linear_200_2)"/>
<path d="M397.82 1126.27L398.656 1081.14C398.99 1068.76 409.69 1059.4 421.894 1060.74C434.099 1062.08 442.625 1073.61 440.284 1085.65L433.764 1118.25L424.235 1136.81L397.82 1126.27Z" fill="url(#paint9_linear_200_2)"/>
<path d="M426.241 1223.74C397.249 1223.74 373.746 1200.24 373.746 1171.25C373.746 1142.25 397.249 1118.75 426.241 1118.75C455.234 1118.75 478.736 1142.25 478.736 1171.25C478.736 1200.24 455.234 1223.74 426.241 1223.74Z" fill="url(#paint10_linear_200_2)"/>
<path d="M429.92 1176.43C428.917 1180.27 430.422 1183.95 433.264 1184.79C436.106 1185.62 439.282 1183.12 440.453 1179.27C441.456 1175.43 439.951 1171.75 437.109 1170.91C434.267 1170.08 431.09 1172.58 429.92 1176.43Z" fill="url(#paint11_linear_200_2)"/>
<path d="M390.131 1164.73C389.128 1168.57 390.633 1172.25 393.475 1173.09C396.317 1173.92 399.493 1171.41 400.664 1167.57C401.667 1163.72 400.162 1160.05 397.32 1159.21C394.311 1158.37 391.134 1160.88 390.131 1164.73Z" fill="url(#paint12_linear_200_2)"/>
<path d="M547.946 1149.01C549.45 1149.01 551.122 1148.68 552.627 1147.84C557.141 1145.33 558.645 1139.65 556.138 1135.14C517.853 1067.93 525.209 1000.39 525.209 999.718C525.878 994.536 522.2 990.022 517.017 989.353C512.002 988.684 507.321 992.362 506.652 997.545C506.318 1000.55 498.627 1071.94 539.921 1144.5C541.593 1147.34 544.769 1149.01 547.946 1149.01Z" fill="url(#paint13_linear_200_2)"/>
<path d="M343.989 1077.63C344.658 1077.63 345.326 1077.63 346.162 1077.46C377.592 1070.1 404.007 1049.21 422.564 1016.77C436.273 992.698 440.787 970.964 440.954 970.128C441.957 965.113 438.781 960.098 433.598 959.095C428.583 958.091 423.567 961.268 422.564 966.451C422.397 967.286 405.679 1044.52 341.983 1059.4C336.967 1060.57 333.791 1065.59 334.961 1070.6C335.964 1074.78 339.809 1077.63 343.989 1077.63Z" fill="url(#paint14_linear_200_2)"/>
<path d="M858.905 967.119L730.844 1076.79L796.714 1277.07C796.714 1277.07 875.456 1254.34 874.788 1192.65C874.788 1192.65 879.301 1169.24 853.388 1150.02C853.388 1150.02 913.239 1117.08 913.741 1047.2C914.075 1005.24 898.193 980.995 885.654 968.289C878.298 960.933 866.596 960.432 858.905 967.119Z" fill="url(#paint15_linear_200_2)"/>
<path d="M813.765 1139.65C813.765 1139.65 858.403 1186.79 794.205 1246.14L787.016 1247.82L730.843 1076.79L813.097 1006.41C824.465 1020.28 864.589 1077.46 813.765 1139.65Z" fill="url(#paint16_linear_200_2)"/>
<path opacity="0.3" d="M730.842 1076.79L858.904 967.118C866.761 960.431 878.464 960.933 885.653 968.122C887.826 970.295 890.166 972.803 892.34 975.812C869.102 996.375 813.597 1040.68 731.01 1077.46L730.842 1076.79Z" fill="#FFCA83"/>
<path d="M624.35 1162.39C624.35 1162.39 569.849 1283.43 378.091 1286.77C378.091 1286.77 397.485 1354.98 414.704 1355.82C431.757 1356.65 660.127 1333.08 660.127 1333.08L624.35 1162.39Z" fill="url(#paint17_linear_200_2)"/>
<path d="M547.947 990.523C547.947 990.523 527.384 1028.31 464.189 1015.43C408.852 1004.23 414.871 946.22 414.871 946.22L547.947 990.523Z" fill="url(#paint18_linear_200_2)"/>
<path d="M631.705 1288.44C631.705 1288.44 433.428 1377.55 281.125 1196.32C275.107 1189.13 264.741 1187.3 256.717 1191.98L250.197 1195.65C241.837 1200.5 238.327 1211.04 242.172 1219.9C261.398 1264.37 322.753 1382.73 457.669 1392.43C618.331 1404.13 701.42 1343.78 701.42 1343.78L631.705 1288.44Z" fill="url(#paint19_linear_200_2)"/>
<path d="M255.881 1192.31L256.55 1191.98C264.741 1187.3 274.939 1189.13 280.958 1196.32C433.428 1377.55 631.705 1288.44 631.705 1288.44L645.414 1299.31L641.067 1314.69C381.601 1373.54 281.627 1238.12 255.881 1192.31Z" fill="url(#paint20_linear_200_2)"/>
<path d="M1186.58 63L484.419 384.658L1028.93 488.812C1029.1 488.812 1300.43 388.001 1186.58 63Z" fill="url(#paint21_linear_200_2)"/>
<path d="M809.586 375.797C1063.37 337.345 1169.7 209.451 1208.31 144.25C1254.46 405.053 1029.1 488.811 1029.1 488.811L879.802 460.223C844.861 418.929 809.586 375.797 809.586 375.797Z" fill="url(#paint22_linear_200_2)"/>
<path d="M1101.66 101.953L1186.58 63C1300.27 388.001 1028.93 488.812 1028.93 488.812L994.659 482.292C980.616 462.397 968.746 445.01 968.746 445.01C1148.63 339.853 1115.53 154.95 1101.66 101.953Z" fill="url(#paint23_linear_200_2)"/>
<path d="M704.763 986.844C704.763 986.844 766.453 1168.24 789.19 1225.25C790.862 1229.43 790.36 1234.11 787.685 1237.62C776.15 1254 737.363 1297.47 641.067 1314.52C633.711 1315.86 626.689 1310.68 625.686 1303.32L582.888 991.693L704.763 986.844Z" fill="url(#paint24_linear_200_2)"/>
<path d="M653.271 1363.17C705.933 1425.36 764.446 1387.91 764.446 1387.91C764.446 1387.91 779.326 1399.45 808.582 1399.11C837.839 1398.78 854.557 1368.02 854.557 1368.02C858.904 1366.18 862.08 1364.01 864.421 1361.67C873.783 1352.97 870.941 1342.27 868.935 1336.76C867.932 1334.08 866.093 1331.91 863.752 1330.4C842.019 1316.86 818.446 1282.76 818.446 1282.76L653.271 1363.17Z" fill="url(#paint25_linear_200_2)"/>
<path d="M818.78 1283.42C818.78 1283.59 818.947 1283.59 818.947 1283.76C819.114 1284.09 819.281 1284.26 819.615 1284.76C819.615 1284.76 819.615 1284.76 819.783 1284.93C823.795 1290.45 835.331 1305.99 848.705 1318.7C830.817 1315.69 778.489 1333.41 685.703 1390.09C675.003 1384.57 663.969 1376.04 653.103 1363.34L818.278 1282.92C818.278 1282.92 818.278 1283.09 818.445 1283.09C818.612 1283.09 818.78 1283.26 818.78 1283.42Z" fill="url(#paint26_linear_200_2)"/>
<path d="M826.468 1270.39C828.475 1261.36 826.803 1252 821.453 1244.47C814.431 1234.61 800.722 1223.07 776.983 1229.09C738.531 1238.79 609.467 1301.65 612.476 1330.9C615.485 1360.16 665.472 1381.56 719.974 1357.65C768.456 1336.59 818.109 1307.67 826.468 1270.39Z" fill="url(#paint27_linear_200_2)"/>
<path opacity="0.3" d="M719.974 1357.65C665.472 1381.39 615.485 1360.16 612.476 1330.9C611.974 1326.72 614.315 1322.04 618.494 1316.86C765.447 1344.95 806.407 1263.2 815.434 1237.62C817.775 1239.79 819.948 1242.3 821.453 1244.47C826.803 1251.99 828.475 1261.36 826.468 1270.22C818.109 1307.67 768.456 1336.59 719.974 1357.65Z" fill="url(#paint28_linear_200_2)"/>
<path d="M747.56 1370.69C753.746 1378.38 764.445 1387.75 764.445 1387.75C764.445 1387.75 761.102 1389.92 755.25 1392.26C747.727 1380.39 747.56 1370.69 747.56 1370.69Z" fill="#F87C38"/>
<path d="M842.187 1343.61C854.391 1351.47 854.558 1367.52 854.558 1367.85C858.905 1366.01 862.081 1363.84 864.422 1361.5C858.738 1348.29 843.357 1343.95 842.187 1343.61Z" fill="#F87C38"/>
<path d="M246.351 766.501C247.02 770.011 248.023 773.689 249.026 777.367C271.262 858.785 356.023 982.165 543.768 995.707C819.617 1015.77 895.685 915.125 888.329 902.921C881.475 891.553 842.354 901.416 837.506 902.754C946.174 867.98 946.676 833.373 933.97 819.999C921.097 806.624 893.679 819.999 893.679 819.999C911.4 796.761 921.765 757.807 921.765 757.807C944.669 791.076 971.251 816.321 994.657 834.544C1031.27 862.797 1075.74 878.512 1122.05 879.683C1306.12 885.032 1376 740.253 1376 740.253C1376 740.253 1171.2 581.765 991.982 442.837C812.763 303.909 586.065 325.81 442.288 405.054C298.512 484.298 311.218 627.74 277.782 676.39C268.419 690.099 261.565 697.956 254.543 710.495C254.209 711.163 253.875 711.999 253.373 712.668C244.847 728.718 242.673 748.779 246.351 766.501Z" fill="url(#paint29_linear_200_2)"/>
<path d="M894.178 586.278C894.178 586.278 1088.28 860.456 1330.19 800.772C1290.73 839.725 1223.86 882.691 1122.21 879.849C1076.07 878.512 1031.43 862.964 994.821 834.71C971.416 816.654 944.667 791.41 921.93 757.974C921.93 757.974 941.323 671.708 894.178 586.278Z" fill="url(#paint30_linear_200_2)"/>
<path d="M1305.11 685.417C1348.58 719.02 1376 740.252 1376 740.252C1376 740.252 1306.12 884.865 1122.22 879.849C1076.07 878.512 1031.44 862.964 994.824 834.71C990.644 831.534 986.465 828.023 982.285 824.512C1164.01 858.784 1273.01 730.389 1305.11 685.417Z" fill="url(#paint31_linear_200_2)"/>
<path d="M597.934 766.166C582.515 766.166 570.015 740.417 570.015 708.655C570.015 676.893 582.515 651.145 597.934 651.145C613.354 651.145 625.854 676.893 625.854 708.655C625.854 740.417 613.354 766.166 597.934 766.166Z" fill="url(#paint32_linear_200_2)"/>
<path d="M590.747 693.442C586.776 693.442 583.558 689.25 583.558 684.079C583.558 678.909 586.776 674.717 590.747 674.717C594.717 674.717 597.936 678.909 597.936 684.079C597.936 689.25 594.717 693.442 590.747 693.442Z" fill="white"/>
<path d="M370.569 731.559C356.996 731.559 345.993 708.879 345.993 680.903C345.993 652.926 356.996 630.246 370.569 630.246C384.142 630.246 395.145 652.926 395.145 680.903C395.145 708.879 384.142 731.559 370.569 731.559Z" fill="url(#paint33_linear_200_2)"/>
<path d="M364.385 667.529C360.968 667.529 358.199 663.861 358.199 659.337C358.199 654.813 360.968 651.145 364.385 651.145C367.801 651.145 370.57 654.813 370.57 659.337C370.57 663.861 367.801 667.529 364.385 667.529Z" fill="white"/>
<path d="M632.81 627.138C599.618 613.907 577.534 591.082 583.483 576.159C589.432 561.236 621.162 559.864 654.354 573.096C687.546 586.328 709.63 609.152 703.681 624.075C697.732 638.999 666.002 640.37 632.81 627.138Z" fill="#F87C38"/>
<path d="M334.041 592.045C329.186 579.867 343.606 562.676 366.248 553.65C388.891 544.624 411.182 547.18 416.037 559.358C420.892 571.537 406.473 588.728 383.83 597.754C361.188 606.78 338.897 604.224 334.041 592.045Z" fill="#F87C38"/>
<path opacity="0.3" d="M1205.31 129.538C1100.99 167.656 856.064 255.092 614.487 324.974L1186.58 63C1194.77 86.2382 1200.96 108.473 1205.31 129.538Z" fill="#FFCA83"/>
<path opacity="0.3" d="M991.982 442.836C1171.2 581.764 1376 740.252 1376 740.252C1376 740.252 1362.96 767.169 1333.53 797.261C1240.92 703.64 906.719 373.289 778.156 349.047C851.549 361.586 925.109 391.01 991.982 442.836Z" fill="#FFCA83"/>
<path opacity="0.5" d="M697.241 864.135C656.8 864.135 624.016 847.967 624.016 828.023C624.016 808.08 656.8 791.912 697.241 791.912C737.683 791.912 770.467 808.08 770.467 828.023C770.467 847.967 737.683 864.135 697.241 864.135Z" fill="#FFCA83"/>
<path opacity="0.5" d="M246.352 766.5C247.02 770.011 248.023 773.689 249.027 777.367C252.036 777.534 255.045 777.701 258.054 777.701C295.837 777.701 326.432 762.655 326.432 744.098C326.432 725.541 295.837 710.494 258.054 710.494C256.884 710.494 255.714 710.494 254.544 710.494C254.209 711.163 253.875 711.999 253.373 712.668C244.847 728.717 242.674 748.779 246.352 766.5Z" fill="#FFCA83"/>
<path d="M545.434 1258.68C567.502 1288.78 590.908 1338.43 588.734 1413.49C588.4 1426.53 577.533 1436.9 564.493 1436.9H507.484H450.475C437.435 1436.9 426.568 1426.53 426.234 1413.49C424.228 1338.43 447.466 1288.61 469.534 1258.68C488.593 1233.1 526.71 1233.1 545.434 1258.68Z" fill="url(#paint34_linear_200_2)"/>
<path d="M467.363 1399.78H548.112C552.124 1399.78 555.301 1396.61 555.301 1392.6C555.301 1388.58 552.124 1385.41 548.112 1385.41H467.363C463.351 1385.41 460.174 1388.58 460.174 1392.6C460.174 1396.44 463.351 1399.78 467.363 1399.78Z" fill="url(#paint35_linear_200_2)"/>
<path d="M467.363 1372.53H548.112C552.124 1372.53 555.301 1369.36 555.301 1365.35C555.301 1361.33 552.124 1358.16 548.112 1358.16H467.363C463.351 1358.16 460.174 1361.33 460.174 1365.35C460.174 1369.36 463.351 1372.53 467.363 1372.53Z" fill="url(#paint36_linear_200_2)"/>
<path d="M467.363 1345.45H548.112C552.124 1345.45 555.301 1342.27 555.301 1338.26C555.301 1334.25 552.124 1331.07 548.112 1331.07H467.363C463.351 1331.07 460.174 1334.25 460.174 1338.26C460.174 1342.27 463.351 1345.45 467.363 1345.45Z" fill="url(#paint37_linear_200_2)"/>
<path opacity="0.5" d="M588.904 1396.77C589.071 1402.12 589.071 1407.81 588.904 1413.49C588.57 1426.53 577.703 1436.9 564.663 1436.9H507.654H450.645C440.948 1436.9 432.589 1431.21 428.744 1423.02C501.468 1431.88 566 1407.14 588.904 1396.77Z" fill="url(#paint38_linear_200_2)"/>
<path d="M506.15 838.053C538.584 838.053 546.943 818.66 547.444 817.824C548.28 815.985 547.277 813.811 545.438 812.975C543.599 812.14 541.426 813.143 540.59 814.982C540.255 815.817 531.395 834.876 494.113 829.861C456.999 824.678 459.339 783.217 459.339 781.378L451.983 780.375C451.816 780.877 440.95 828.189 407.848 828.189C369.061 828.189 363.544 803.446 363.544 803.112C363.21 801.106 361.204 799.768 359.198 800.27C357.191 800.604 355.854 802.61 356.356 804.616C356.356 804.951 358.027 812.808 365.383 820.499C372.071 827.353 384.776 835.712 407.848 835.712C432.925 835.712 446.801 814.647 453.655 798.932C456.999 813.979 466.528 833.706 493.11 837.384C497.791 837.718 502.138 838.053 506.15 838.053Z" fill="#F87C38"/>
<path d="M448.978 737.245C455.331 736.743 461.851 737.579 467.87 739.418C482.749 744.099 497.127 752.96 496.458 762.824C495.455 779.375 470.712 784.557 459.344 786.229C455.666 786.731 451.988 786.229 448.644 784.892C438.112 780.712 415.208 769.845 418.217 753.462C419.889 743.765 434.099 738.248 448.978 737.245Z" fill="#F87C38"/>
<path d="M125.983 1194.32L175.636 1361C178.143 1369.19 185.667 1374.71 194.026 1374.71H296.174C307.375 1313.52 246.855 1299.31 246.855 1299.31L223.45 1217.39C217.431 1203.51 209.574 1192.98 200.88 1185.29C197.035 1181.78 192.855 1178.94 188.676 1176.43C185.332 1174.42 181.989 1172.92 178.645 1171.42C174.967 1169.91 171.289 1168.57 167.778 1167.74C161.76 1166.07 155.741 1165.06 150.224 1164.56C134.007 1163.06 121.302 1178.6 125.983 1194.32Z" fill="url(#paint39_linear_200_2)"/>
<path d="M138.854 1166.4L201.547 1374.71H194.191C185.665 1374.71 178.141 1369.19 175.801 1361L126.148 1194.32C122.47 1182.62 128.656 1170.91 138.854 1166.4Z" fill="url(#paint40_linear_200_2)"/>
<path d="M217.095 1374.71C214.588 1370.36 213.083 1365.35 213.083 1359.83C213.083 1343.45 226.457 1330.07 242.841 1330.07C259.225 1330.07 272.6 1343.45 272.6 1359.83C272.6 1365.18 271.095 1370.19 268.587 1374.71H217.095Z" fill="url(#paint41_linear_200_2)"/>
<path d="M188.677 1176.6L204.726 1237.28C205.395 1239.79 208.07 1241.3 210.578 1240.63C213.085 1239.96 214.59 1237.28 213.921 1234.78L200.881 1185.29C197.036 1181.95 192.856 1179.1 188.677 1176.6Z" fill="url(#paint42_linear_200_2)"/>
<path d="M167.942 1167.9L184.326 1229.93C184.995 1232.44 187.669 1233.94 190.177 1233.27C192.685 1232.6 194.19 1229.93 193.521 1227.42L178.809 1171.58C175.131 1170.08 171.453 1168.91 167.942 1167.9Z" fill="url(#paint43_linear_200_2)"/>
<defs>
<linearGradient id="paint0_linear_200_2" x1="365.547" y1="850.549" x2="269.661" y2="1466.49" gradientUnits="userSpaceOnUse">
<stop stop-color="#03192E"/>
<stop offset="0.1695" stop-color="#0C233F"/>
<stop offset="0.5" stop-color="#223C6A"/>
<stop offset="1" stop-color="#4A74A2"/>
</linearGradient>
<linearGradient id="paint1_linear_200_2" x1="277.752" y1="1208.26" x2="373.435" y2="916.337" gradientUnits="userSpaceOnUse">
<stop stop-color="#03192E"/>
<stop offset="0.1695" stop-color="#0C233F"/>
<stop offset="0.5" stop-color="#223C6A"/>
<stop offset="1" stop-color="#4A74A2"/>
</linearGradient>
<linearGradient id="paint2_linear_200_2" x1="249.504" y1="1396.94" x2="230.001" y2="1148.9" gradientUnits="userSpaceOnUse">
<stop stop-color="#FF2A64"/>
<stop offset="1" stop-color="#FFAF48"/>
</linearGradient>
<linearGradient id="paint3_linear_200_2" x1="305.471" y1="1228.98" x2="151.891" y2="1042.49" gradientUnits="userSpaceOnUse">
<stop stop-color="#386E9F"/>
<stop offset="1" stop-color="white"/>
</linearGradient>
<linearGradient id="paint4_linear_200_2" x1="282.865" y1="1212.09" x2="160.976" y2="1056.07" gradientUnits="userSpaceOnUse">
<stop stop-color="#386E9F"/>
<stop offset="1" stop-color="white"/>
</linearGradient>
<linearGradient id="paint5_linear_200_2" x1="-362.025" y1="1269.62" x2="302.5" y2="1269.62" gradientUnits="userSpaceOnUse">
<stop stop-color="#FF2A64"/>
<stop offset="1" stop-color="#FFAF48"/>
</linearGradient>
<linearGradient id="paint6_linear_200_2" x1="-34.423" y1="1524.1" x2="406.814" y2="1314.45" gradientUnits="userSpaceOnUse">
<stop stop-color="#FF2A64"/>
<stop offset="1" stop-color="#FFAF48"/>
</linearGradient>
<linearGradient id="paint7_linear_200_2" x1="343.408" y1="1796.05" x2="535.992" y2="828.255" gradientUnits="userSpaceOnUse">
<stop stop-color="#03192E"/>
<stop offset="0.1695" stop-color="#0C233F"/>
<stop offset="0.5" stop-color="#223C6A"/>
<stop offset="1" stop-color="#4A74A2"/>
</linearGradient>
<linearGradient id="paint8_linear_200_2" x1="484.619" y1="1064.12" x2="465.117" y2="1134.2" gradientUnits="userSpaceOnUse">
<stop stop-color="white"/>
<stop offset="1" stop-color="#B5E0F7"/>
</linearGradient>
<linearGradient id="paint9_linear_200_2" x1="430.117" y1="1048.95" x2="410.615" y2="1119.04" gradientUnits="userSpaceOnUse">
<stop stop-color="white"/>
<stop offset="1" stop-color="#B5E0F7"/>
</linearGradient>
<linearGradient id="paint10_linear_200_2" x1="455.418" y1="1057.35" x2="407.272" y2="1245.67" gradientUnits="userSpaceOnUse">
<stop stop-color="white"/>
<stop offset="1" stop-color="#B5E0F7"/>
</linearGradient>
<linearGradient id="paint11_linear_200_2" x1="433.106" y1="1192.36" x2="441.029" y2="1138.12" gradientUnits="userSpaceOnUse">
<stop stop-color="#03192E"/>
<stop offset="0.1695" stop-color="#0C233F"/>
<stop offset="0.5" stop-color="#223C6A"/>
<stop offset="1" stop-color="#4A74A2"/>
</linearGradient>
<linearGradient id="paint12_linear_200_2" x1="392.404" y1="1186.42" x2="400.327" y2="1132.18" gradientUnits="userSpaceOnUse">
<stop stop-color="#03192E"/>
<stop offset="0.1695" stop-color="#0C233F"/>
<stop offset="0.5" stop-color="#223C6A"/>
<stop offset="1" stop-color="#4A74A2"/>
</linearGradient>
<linearGradient id="paint13_linear_200_2" x1="614.38" y1="730.137" x2="514.431" y2="1140.9" gradientUnits="userSpaceOnUse">
<stop stop-color="#386E9F"/>
<stop offset="1" stop-color="white"/>
</linearGradient>
<linearGradient id="paint14_linear_200_2" x1="466.739" y1="694.213" x2="366.79" y2="1104.98" gradientUnits="userSpaceOnUse">
<stop stop-color="#386E9F"/>
<stop offset="1" stop-color="white"/>
</linearGradient>
<linearGradient id="paint15_linear_200_2" x1="549.567" y1="1520.6" x2="916.452" y2="976.976" gradientUnits="userSpaceOnUse">
<stop stop-color="#FF2A64"/>
<stop offset="1" stop-color="#FFAF48"/>
</linearGradient>
<linearGradient id="paint16_linear_200_2" x1="595.749" y1="1462.58" x2="949.226" y2="838.509" gradientUnits="userSpaceOnUse">
<stop stop-color="#FF2A64"/>
<stop offset="1" stop-color="#FFAF48"/>
</linearGradient>
<linearGradient id="paint17_linear_200_2" x1="527.562" y1="1679.67" x2="515.374" y2="1145.79" gradientUnits="userSpaceOnUse">
<stop stop-color="#03192E"/>
<stop offset="0.1695" stop-color="#0C233F"/>
<stop offset="0.5" stop-color="#223C6A"/>
<stop offset="1" stop-color="#4A74A2"/>
</linearGradient>
<linearGradient id="paint18_linear_200_2" x1="450.772" y1="1132.88" x2="497.09" y2="884.223" gradientUnits="userSpaceOnUse">
<stop stop-color="#386E9F"/>
<stop offset="1" stop-color="white"/>
</linearGradient>
<linearGradient id="paint19_linear_200_2" x1="366.299" y1="1650.01" x2="530.848" y2="1063.73" gradientUnits="userSpaceOnUse">
<stop stop-color="#386E9F"/>
<stop offset="1" stop-color="white"/>
</linearGradient>
<linearGradient id="paint20_linear_200_2" x1="374.27" y1="1504.07" x2="462.03" y2="1207.88" gradientUnits="userSpaceOnUse">
<stop stop-color="#386E9F"/>
<stop offset="1" stop-color="white"/>
</linearGradient>
<linearGradient id="paint21_linear_200_2" x1="-229.154" y1="1375.84" x2="1270.08" y2="-31.9711" gradientUnits="userSpaceOnUse">
<stop stop-color="#FF2A64"/>
<stop offset="1" stop-color="#FFAF48"/>
</linearGradient>
<linearGradient id="paint22_linear_200_2" x1="355.588" y1="868.596" x2="1342.89" y2="115.324" gradientUnits="userSpaceOnUse">
<stop stop-color="#FF2A64"/>
<stop offset="1" stop-color="#FFAF48"/>
</linearGradient>
<linearGradient id="paint23_linear_200_2" x1="771.201" y1="1161.29" x2="1476.94" y2="-615.847" gradientUnits="userSpaceOnUse">
<stop stop-color="#FF2A64"/>
<stop offset="1" stop-color="#FFAF48"/>
</linearGradient>
<linearGradient id="paint24_linear_200_2" x1="718.619" y1="905.511" x2="622.733" y2="1521.46" gradientUnits="userSpaceOnUse">
<stop stop-color="#03192E"/>
<stop offset="0.1695" stop-color="#0C233F"/>
<stop offset="0.5" stop-color="#223C6A"/>
<stop offset="1" stop-color="#4A74A2"/>
</linearGradient>
<linearGradient id="paint25_linear_200_2" x1="546.546" y1="903.701" x2="809.825" y2="1451.39" gradientUnits="userSpaceOnUse">
<stop stop-color="#FF2A64"/>
<stop offset="1" stop-color="#FFAF48"/>
</linearGradient>
<linearGradient id="paint26_linear_200_2" x1="588.089" y1="978.088" x2="817.24" y2="1488.4" gradientUnits="userSpaceOnUse">
<stop stop-color="#FF2A64"/>
<stop offset="1" stop-color="#FFAF48"/>
</linearGradient>
<linearGradient id="paint27_linear_200_2" x1="619.748" y1="1393.6" x2="1075.61" y2="982.838" gradientUnits="userSpaceOnUse">
<stop stop-color="#386E9F"/>
<stop offset="1" stop-color="white"/>
</linearGradient>
<linearGradient id="paint28_linear_200_2" x1="720.215" y1="1298.77" x2="758" y2="1565.71" gradientUnits="userSpaceOnUse">
<stop stop-color="#386E9F"/>
<stop offset="1" stop-color="white"/>
</linearGradient>
<linearGradient id="paint29_linear_200_2" x1="-69.0682" y1="2476.58" x2="888.977" y2="560.491" gradientUnits="userSpaceOnUse">
<stop stop-color="#FF2A64"/>
<stop offset="1" stop-color="#FFAF48"/>
</linearGradient>
<linearGradient id="paint30_linear_200_2" x1="-142.221" y1="-146.498" x2="1272.91" y2="899.308" gradientUnits="userSpaceOnUse">
<stop stop-color="#FF2A64"/>
<stop offset="1" stop-color="#FFAF48"/>
</linearGradient>
<linearGradient id="paint31_linear_200_2" x1="290.246" y1="1566.66" x2="1672.46" y2="363.615" gradientUnits="userSpaceOnUse">
<stop stop-color="#FF2A64"/>
<stop offset="1" stop-color="#FFAF48"/>
</linearGradient>
<linearGradient id="paint32_linear_200_2" x1="597.891" y1="757.075" x2="597.891" y2="570.976" gradientUnits="userSpaceOnUse">
<stop stop-color="#03192E"/>
<stop offset="0.1695" stop-color="#0C233F"/>
<stop offset="0.5" stop-color="#223C6A"/>
<stop offset="1" stop-color="#4A74A2"/>
</linearGradient>
<linearGradient id="paint33_linear_200_2" x1="370.571" y1="757.075" x2="370.571" y2="570.975" gradientUnits="userSpaceOnUse">
<stop stop-color="#03192E"/>
<stop offset="0.1695" stop-color="#0C233F"/>
<stop offset="0.5" stop-color="#223C6A"/>
<stop offset="1" stop-color="#4A74A2"/>
</linearGradient>
<linearGradient id="paint34_linear_200_2" x1="507.644" y1="1724.87" x2="507.644" y2="1267.96" gradientUnits="userSpaceOnUse">
<stop stop-color="#03192E"/>
<stop offset="0.1695" stop-color="#0C233F"/>
<stop offset="0.5" stop-color="#223C6A"/>
<stop offset="1" stop-color="#4A74A2"/>
</linearGradient>
<linearGradient id="paint35_linear_200_2" x1="507.647" y1="1531.47" x2="507.647" y2="1088.53" gradientUnits="userSpaceOnUse">
<stop stop-color="#03192E"/>
<stop offset="0.1695" stop-color="#0C233F"/>
<stop offset="0.5" stop-color="#223C6A"/>
<stop offset="1" stop-color="#4A74A2"/>
</linearGradient>
<linearGradient id="paint36_linear_200_2" x1="507.647" y1="1531.48" x2="507.647" y2="1088.54" gradientUnits="userSpaceOnUse">
<stop stop-color="#03192E"/>
<stop offset="0.1695" stop-color="#0C233F"/>
<stop offset="0.5" stop-color="#223C6A"/>
<stop offset="1" stop-color="#4A74A2"/>
</linearGradient>
<linearGradient id="paint37_linear_200_2" x1="507.647" y1="1531.47" x2="507.647" y2="1088.53" gradientUnits="userSpaceOnUse">
<stop stop-color="#03192E"/>
<stop offset="0.1695" stop-color="#0C233F"/>
<stop offset="0.5" stop-color="#223C6A"/>
<stop offset="1" stop-color="#4A74A2"/>
</linearGradient>
<linearGradient id="paint38_linear_200_2" x1="508.848" y1="1580.23" x2="508.848" y2="1297.44" gradientUnits="userSpaceOnUse">
<stop stop-color="#03192E"/>
<stop offset="0.1695" stop-color="#0C233F"/>
<stop offset="0.5" stop-color="#223C6A"/>
<stop offset="1" stop-color="#4A74A2"/>
</linearGradient>
<linearGradient id="paint39_linear_200_2" x1="293.683" y1="1563.95" x2="195.359" y2="1214.53" gradientUnits="userSpaceOnUse">
<stop stop-color="#03192E"/>
<stop offset="0.1695" stop-color="#0C233F"/>
<stop offset="0.5" stop-color="#223C6A"/>
<stop offset="1" stop-color="#4A74A2"/>
</linearGradient>
<linearGradient id="paint40_linear_200_2" x1="104.122" y1="1064.01" x2="239.418" y2="1564.97" gradientUnits="userSpaceOnUse">
<stop stop-color="#03192E"/>
<stop offset="0.1695" stop-color="#0C233F"/>
<stop offset="0.5" stop-color="#223C6A"/>
<stop offset="1" stop-color="#4A74A2"/>
</linearGradient>
<linearGradient id="paint41_linear_200_2" x1="253.413" y1="1621.64" x2="241.225" y2="1318.14" gradientUnits="userSpaceOnUse">
<stop stop-color="#03192E"/>
<stop offset="0.1695" stop-color="#0C233F"/>
<stop offset="0.5" stop-color="#223C6A"/>
<stop offset="1" stop-color="#4A74A2"/>
</linearGradient>
<linearGradient id="paint42_linear_200_2" x1="256.248" y1="1433.82" x2="179.052" y2="1112.84" gradientUnits="userSpaceOnUse">
<stop stop-color="#386E9F"/>
<stop offset="1" stop-color="white"/>
</linearGradient>
<linearGradient id="paint43_linear_200_2" x1="238.54" y1="1438.08" x2="161.344" y2="1117.1" gradientUnits="userSpaceOnUse">
<stop stop-color="#386E9F"/>
<stop offset="1" stop-color="white"/>
</linearGradient>
</defs>
</svg>
